<svg width="120" height="101" viewBox="0 0 120 101" fill="none" xmlns="http://www.w3.org/2000/svg">
<path d="M5.6543 2.46875H7.11914V8.16992C7.11914 8.81836 6.97852 9.36133 6.69727 9.79883C6.41602 10.2363 6.0332 10.5664 5.54883 10.7891C5.06836 11.0078 4.53125 11.1172 3.9375 11.1172C3.32422 11.1172 2.77734 11.0078 2.29688 10.7891C1.81641 10.5664 1.4375 10.2363 1.16016 9.79883C0.886719 9.36133 0.75 8.81836 0.75 8.16992V2.46875H2.21484V8.16992C2.21484 8.58008 2.28516 8.91797 2.42578 9.18359C2.56641 9.44531 2.76562 9.63867 3.02344 9.76367C3.28125 9.88867 3.58594 9.95117 3.9375 9.95117C4.28906 9.95117 4.5918 9.88867 4.8457 9.76367C5.10352 9.63867 5.30273 9.44531 5.44336 9.18359C5.58398 8.91797 5.6543 8.58008 5.6543 8.16992V2.46875ZM14.167 8.80273C14.167 8.62695 14.1397 8.4707 14.085 8.33398C14.0342 8.19727 13.9424 8.07227 13.8096 7.95898C13.6768 7.8457 13.4893 7.73633 13.2471 7.63086C13.0088 7.52148 12.7041 7.41016 12.333 7.29688C11.9268 7.17188 11.5518 7.0332 11.208 6.88086C10.8682 6.72461 10.5713 6.54492 10.3174 6.3418C10.0635 6.13477 9.86625 5.89844 9.72563 5.63281C9.585 5.36328 9.51469 5.05273 9.51469 4.70117C9.51469 4.35352 9.58695 4.03711 9.73148 3.75195C9.87992 3.4668 10.0889 3.2207 10.3584 3.01367C10.6319 2.80273 10.9541 2.64062 11.3252 2.52734C11.6963 2.41016 12.1065 2.35156 12.5557 2.35156C13.1885 2.35156 13.7334 2.46875 14.1905 2.70312C14.6514 2.9375 15.0049 3.25195 15.251 3.64648C15.501 4.04102 15.626 4.47656 15.626 4.95312H14.167C14.167 4.67188 14.1065 4.42383 13.9854 4.20898C13.8682 3.99023 13.6885 3.81836 13.4463 3.69336C13.208 3.56836 12.9053 3.50586 12.5381 3.50586C12.1905 3.50586 11.9014 3.55859 11.6709 3.66406C11.4405 3.76953 11.2686 3.91211 11.1553 4.0918C11.042 4.27148 10.9854 4.47461 10.9854 4.70117C10.9854 4.86133 11.0225 5.00781 11.0967 5.14062C11.1709 5.26953 11.2842 5.39062 11.4366 5.50391C11.5889 5.61328 11.7803 5.7168 12.0108 5.81445C12.2413 5.91211 12.5127 6.00586 12.8252 6.0957C13.2979 6.23633 13.71 6.39258 14.0616 6.56445C14.4131 6.73242 14.7061 6.92383 14.9405 7.13867C15.1748 7.35352 15.3506 7.59766 15.4678 7.87109C15.585 8.14062 15.6436 8.44727 15.6436 8.79102C15.6436 9.15039 15.5713 9.47461 15.4268 9.76367C15.2823 10.0488 15.0752 10.293 14.8057 10.4961C14.5401 10.6953 14.2198 10.8496 13.8448 10.959C13.4737 11.0645 13.0596 11.1172 12.6026 11.1172C12.1924 11.1172 11.7881 11.0625 11.3897 10.9531C10.9952 10.8438 10.6358 10.6777 10.3116 10.4551C9.98734 10.2285 9.72953 9.94727 9.53813 9.61133C9.34672 9.27148 9.25102 8.875 9.25102 8.42188H10.7217C10.7217 8.69922 10.7686 8.93555 10.8623 9.13086C10.96 9.32617 11.0948 9.48633 11.2666 9.61133C11.4385 9.73242 11.6377 9.82227 11.8643 9.88086C12.0948 9.93945 12.3409 9.96875 12.6026 9.96875C12.9463 9.96875 13.2334 9.91992 13.4639 9.82227C13.6983 9.72461 13.8741 9.58789 13.9913 9.41211C14.1084 9.23633 14.167 9.0332 14.167 8.80273ZM21.2266 3.60547L18.6778 11H17.1368L20.3477 2.46875H21.3321L21.2266 3.60547ZM23.3595 11L20.8048 3.60547L20.6934 2.46875H21.6837L24.9063 11H23.3595ZM23.2364 7.83594V9.00195H18.5958V7.83594H23.2364ZM33.2784 6.64062V9.89844C33.1573 10.0586 32.9679 10.2344 32.7101 10.4258C32.4562 10.6133 32.1183 10.7754 31.6964 10.9121C31.2745 11.0488 30.7491 11.1172 30.1202 11.1172C29.5851 11.1172 29.0948 11.0273 28.6495 10.8477C28.2042 10.6641 27.8195 10.3965 27.4952 10.0449C27.1749 9.69336 26.9269 9.26562 26.7511 8.76172C26.5753 8.25391 26.4874 7.67578 26.4874 7.02734V6.43555C26.4874 5.79102 26.5675 5.2168 26.7277 4.71289C26.8917 4.20508 27.1261 3.77539 27.4308 3.42383C27.7355 3.07227 28.1027 2.80664 28.5323 2.62695C28.9659 2.44336 29.4562 2.35156 30.003 2.35156C30.7023 2.35156 31.2804 2.46875 31.7374 2.70312C32.1984 2.93359 32.5538 3.25391 32.8038 3.66406C33.0538 4.07422 33.212 4.54297 33.2784 5.07031H31.837C31.7902 4.77344 31.6984 4.50781 31.5616 4.27344C31.4288 4.03906 31.2374 3.85547 30.9874 3.72266C30.7413 3.58594 30.421 3.51758 30.0265 3.51758C29.6866 3.51758 29.3878 3.58203 29.13 3.71094C28.8722 3.83984 28.6573 4.0293 28.4855 4.2793C28.3175 4.5293 28.1905 4.83398 28.1046 5.19336C28.0187 5.55273 27.9757 5.96289 27.9757 6.42383V7.02734C27.9757 7.49609 28.0245 7.91211 28.1222 8.27539C28.2237 8.63867 28.3683 8.94531 28.5558 9.19531C28.7472 9.44531 28.9796 9.63477 29.253 9.76367C29.5265 9.88867 29.8351 9.95117 30.1788 9.95117C30.5148 9.95117 30.7902 9.92383 31.005 9.86914C31.2198 9.81055 31.3898 9.74219 31.5148 9.66406C31.6437 9.58203 31.7433 9.50391 31.8136 9.42969V7.73633H30.0382V6.64062H33.2784ZM41.4513 9.83398V11H36.922V9.83398H41.4513ZM37.338 2.46875V11H35.8673V2.46875H37.338ZM40.8595 6.03125V7.17969H36.922V6.03125H40.8595ZM41.422 2.46875V3.64062H36.922V2.46875H41.422Z" fill="#DDE2E5"/>
<path d="M19 59C19 57.3431 20.3431 56 22 56C23.6569 56 25 57.3431 25 59V101H19V59Z" fill="#DDE2E5"/>
<path d="M0 59C0 57.3431 1.34315 56 3 56C4.65685 56 6 57.3431 6 59V101H0V59Z" fill="#DDE2E5"/>
<path d="M38 45C38 43.3431 39.3431 42 41 42C42.6569 42 44 43.3431 44 45V101H38V45Z" fill="#DDE2E5"/>
<path d="M57 53C57 51.3431 58.3431 50 60 50C61.6569 50 63 51.3431 63 53V101H57V53Z" fill="#DDE2E5"/>
<path d="M76 34C76 32.3431 77.3431 31 79 31C80.6569 31 82 32.3431 82 34V101H76V34Z" fill="#DDE2E5"/>
<path d="M95 71C95 69.3431 96.3431 68 98 68C99.6569 68 101 69.3431 101 71V101H95V71Z" fill="#DDE2E5"/>
<path d="M114 71C114 69.3431 115.343 68 117 68C118.657 68 120 69.3431 120 71V101H114V71Z" fill="#DDE2E5"/>
</svg>
