<svg width="120" height="101" viewBox="0 0 120 101" fill="none" xmlns="http://www.w3.org/2000/svg">
<path d="M7.66992 6.5V6.96875C7.66992 7.61328 7.58594 8.19141 7.41797 8.70312C7.25 9.21484 7.00977 9.65039 6.69727 10.0098C6.38867 10.3691 6.01758 10.6445 5.58398 10.8359C5.15039 11.0234 4.66992 11.1172 4.14258 11.1172C3.61914 11.1172 3.14062 11.0234 2.70703 10.8359C2.27734 10.6445 1.9043 10.3691 1.58789 10.0098C1.27148 9.65039 1.02539 9.21484 0.849609 8.70312C0.677734 8.19141 0.591797 7.61328 0.591797 6.96875V6.5C0.591797 5.85547 0.677734 5.2793 0.849609 4.77148C1.02148 4.25977 1.26367 3.82422 1.57617 3.46484C1.89258 3.10156 2.26562 2.82617 2.69531 2.63867C3.12891 2.44727 3.60742 2.35156 4.13086 2.35156C4.6582 2.35156 5.13867 2.44727 5.57227 2.63867C6.00586 2.82617 6.37891 3.10156 6.69141 3.46484C7.00391 3.82422 7.24414 4.25977 7.41211 4.77148C7.58398 5.2793 7.66992 5.85547 7.66992 6.5ZM6.19922 6.96875V6.48828C6.19922 6.01172 6.15234 5.5918 6.05859 5.22852C5.96875 4.86133 5.83398 4.55469 5.6543 4.30859C5.47852 4.05859 5.26172 3.87109 5.00391 3.74609C4.74609 3.61719 4.45508 3.55273 4.13086 3.55273C3.80664 3.55273 3.51758 3.61719 3.26367 3.74609C3.00977 3.87109 2.79297 4.05859 2.61328 4.30859C2.4375 4.55469 2.30273 4.86133 2.20898 5.22852C2.11523 5.5918 2.06836 6.01172 2.06836 6.48828V6.96875C2.06836 7.44531 2.11523 7.86719 2.20898 8.23438C2.30273 8.60156 2.43945 8.91211 2.61914 9.16602C2.80273 9.41602 3.02148 9.60547 3.27539 9.73438C3.5293 9.85938 3.81836 9.92188 4.14258 9.92188C4.4707 9.92188 4.76172 9.85938 5.01562 9.73438C5.26953 9.60547 5.48438 9.41602 5.66016 9.16602C5.83594 8.91211 5.96875 8.60156 6.05859 8.23438C6.15234 7.86719 6.19922 7.44531 6.19922 6.96875ZM15.1397 8.22266H16.6045C16.5577 8.78125 16.4014 9.2793 16.1358 9.7168C15.8702 10.1504 15.4971 10.4922 15.0166 10.7422C14.5362 10.9922 13.9522 11.1172 13.2647 11.1172C12.7373 11.1172 12.2627 11.0234 11.8409 10.8359C11.419 10.6445 11.0577 10.375 10.7569 10.0273C10.4561 9.67578 10.2256 9.25195 10.0655 8.75586C9.90922 8.25977 9.83109 7.70508 9.83109 7.0918V6.38281C9.83109 5.76953 9.91117 5.21484 10.0713 4.71875C10.2354 4.22266 10.4698 3.79883 10.7745 3.44727C11.0791 3.0918 11.4444 2.82031 11.8702 2.63281C12.2998 2.44531 12.7823 2.35156 13.3174 2.35156C13.9971 2.35156 14.5713 2.47656 15.0401 2.72656C15.5088 2.97656 15.8721 3.32227 16.1299 3.76367C16.3916 4.20508 16.5518 4.71094 16.6104 5.28125H15.1455C15.1065 4.91406 15.0205 4.59961 14.8877 4.33789C14.7588 4.07617 14.5674 3.87695 14.3135 3.74023C14.0596 3.59961 13.7276 3.5293 13.3174 3.5293C12.9815 3.5293 12.6885 3.5918 12.4385 3.7168C12.1885 3.8418 11.9795 4.02539 11.8116 4.26758C11.6436 4.50977 11.5166 4.80859 11.4307 5.16406C11.3487 5.51562 11.3077 5.91797 11.3077 6.37109V7.0918C11.3077 7.52148 11.3448 7.91211 11.419 8.26367C11.4971 8.61133 11.6143 8.91016 11.7705 9.16016C11.9307 9.41016 12.1338 9.60352 12.3799 9.74023C12.626 9.87695 12.9209 9.94531 13.2647 9.94531C13.6827 9.94531 14.0205 9.87891 14.2784 9.74609C14.5401 9.61328 14.7373 9.41992 14.8702 9.16602C15.0069 8.9082 15.0967 8.59375 15.1397 8.22266ZM23.9395 8.22266H25.4044C25.3575 8.78125 25.2013 9.2793 24.9356 9.7168C24.67 10.1504 24.297 10.4922 23.8165 10.7422C23.336 10.9922 22.752 11.1172 22.0645 11.1172C21.5372 11.1172 21.0626 11.0234 20.6407 10.8359C20.2188 10.6445 19.8575 10.375 19.5567 10.0273C19.2559 9.67578 19.0255 9.25195 18.8653 8.75586C18.7091 8.25977 18.6309 7.70508 18.6309 7.0918V6.38281C18.6309 5.76953 18.711 5.21484 18.8712 4.71875C19.0352 4.22266 19.2696 3.79883 19.5743 3.44727C19.879 3.0918 20.2442 2.82031 20.67 2.63281C21.0997 2.44531 21.5821 2.35156 22.1173 2.35156C22.797 2.35156 23.3712 2.47656 23.8399 2.72656C24.3087 2.97656 24.672 3.32227 24.9298 3.76367C25.1915 4.20508 25.3516 4.71094 25.4102 5.28125H23.9454C23.9063 4.91406 23.8204 4.59961 23.6876 4.33789C23.5587 4.07617 23.3673 3.87695 23.1134 3.74023C22.8595 3.59961 22.5274 3.5293 22.1173 3.5293C21.7813 3.5293 21.4884 3.5918 21.2384 3.7168C20.9884 3.8418 20.7794 4.02539 20.6114 4.26758C20.4434 4.50977 20.3165 4.80859 20.2305 5.16406C20.1485 5.51562 20.1075 5.91797 20.1075 6.37109V7.0918C20.1075 7.52148 20.1446 7.91211 20.2188 8.26367C20.297 8.61133 20.4141 8.91016 20.5704 9.16016C20.7305 9.41016 20.9337 9.60352 21.1798 9.74023C21.4259 9.87695 21.7208 9.94531 22.0645 9.94531C22.4825 9.94531 22.8204 9.87891 23.0782 9.74609C23.3399 9.61328 23.5372 9.41992 23.67 9.16602C23.8067 8.9082 23.8966 8.59375 23.9395 8.22266ZM32.4874 2.46875H33.9523V8.16992C33.9523 8.81836 33.8116 9.36133 33.5304 9.79883C33.2491 10.2363 32.8663 10.5664 32.382 10.7891C31.9015 11.0078 31.3644 11.1172 30.7706 11.1172C30.1573 11.1172 29.6105 11.0078 29.13 10.7891C28.6495 10.5664 28.2706 10.2363 27.9933 9.79883C27.7198 9.36133 27.5831 8.81836 27.5831 8.16992V2.46875H29.048V8.16992C29.048 8.58008 29.1183 8.91797 29.2589 9.18359C29.3995 9.44531 29.5987 9.63867 29.8566 9.76367C30.1144 9.88867 30.4191 9.95117 30.7706 9.95117C31.1222 9.95117 31.4249 9.88867 31.6788 9.76367C31.9366 9.63867 32.1359 9.44531 32.2765 9.18359C32.4171 8.91797 32.4874 8.58008 32.4874 8.16992V2.46875ZM39.7521 7.81836H37.5314V6.65234H39.7521C40.1388 6.65234 40.4513 6.58984 40.6896 6.46484C40.9279 6.33984 41.1017 6.16797 41.2111 5.94922C41.3244 5.72656 41.381 5.47266 41.381 5.1875C41.381 4.91797 41.3244 4.66602 41.2111 4.43164C41.1017 4.19336 40.9279 4.00195 40.6896 3.85742C40.4513 3.71289 40.1388 3.64062 39.7521 3.64062H37.9826V11H36.5119V2.46875H39.7521C40.4123 2.46875 40.9728 2.58594 41.4338 2.82031C41.8986 3.05078 42.2521 3.37109 42.4943 3.78125C42.7365 4.1875 42.8576 4.65234 42.8576 5.17578C42.8576 5.72656 42.7365 6.19922 42.4943 6.59375C42.2521 6.98828 41.8986 7.29102 41.4338 7.50195C40.9728 7.71289 40.4123 7.81836 39.7521 7.81836ZM47.5676 3.60547L45.0187 11H43.4777L46.6887 2.46875H47.673L47.5676 3.60547ZM49.7004 11L47.1457 3.60547L47.0344 2.46875H48.0246L51.2473 11H49.7004ZM49.5773 7.83594V9.00195H44.9367V7.83594H49.5773ZM59.9299 2.46875V11H58.4592L54.633 4.88867V11H53.1623V2.46875H54.633L58.4709 8.5918V2.46875H59.9299ZM67.6809 8.22266H69.1458C69.0989 8.78125 68.9427 9.2793 68.677 9.7168C68.4114 10.1504 68.0384 10.4922 67.5579 10.7422C67.0774 10.9922 66.4934 11.1172 65.8059 11.1172C65.2786 11.1172 64.804 11.0234 64.3821 10.8359C63.9602 10.6445 63.5989 10.375 63.2981 10.0273C62.9973 9.67578 62.7669 9.25195 62.6067 8.75586C62.4505 8.25977 62.3723 7.70508 62.3723 7.0918V6.38281C62.3723 5.76953 62.4524 5.21484 62.6126 4.71875C62.7766 4.22266 63.011 3.79883 63.3157 3.44727C63.6204 3.0918 63.9856 2.82031 64.4114 2.63281C64.8411 2.44531 65.3235 2.35156 65.8587 2.35156C66.5384 2.35156 67.1126 2.47656 67.5813 2.72656C68.0501 2.97656 68.4134 3.32227 68.6712 3.76367C68.9329 4.20508 69.093 4.71094 69.1516 5.28125H67.6868C67.6477 4.91406 67.5618 4.59961 67.429 4.33789C67.3001 4.07617 67.1087 3.87695 66.8548 3.74023C66.6009 3.59961 66.2688 3.5293 65.8587 3.5293C65.5227 3.5293 65.2298 3.5918 64.9798 3.7168C64.7298 3.8418 64.5208 4.02539 64.3528 4.26758C64.1848 4.50977 64.0579 4.80859 63.972 5.16406C63.8899 5.51562 63.8489 5.91797 63.8489 6.37109V7.0918C63.8489 7.52148 63.886 7.91211 63.9602 8.26367C64.0384 8.61133 64.1555 8.91016 64.3118 9.16016C64.472 9.41016 64.6751 9.60352 64.9212 9.74023C65.1673 9.87695 65.4622 9.94531 65.8059 9.94531C66.2239 9.94531 66.5618 9.87891 66.8196 9.74609C67.0813 9.61328 67.2786 9.41992 67.4114 9.16602C67.5481 8.9082 67.638 8.59375 67.6809 8.22266ZM72.2562 2.46875L74.2366 6.54102L76.2171 2.46875H77.846L74.9749 7.85938V11H73.4925V7.85938L70.6214 2.46875H72.2562Z" fill="#DDE2E5"/>
<path d="M19 59C19 57.3431 20.3431 56 22 56C23.6569 56 25 57.3431 25 59V101H19V59Z" fill="#7048E8"/>
<path d="M0 59C0 57.3431 1.34315 56 3 56C4.65685 56 6 57.3431 6 59V101H0V59Z" fill="#7048E8"/>
<path d="M38 45C38 43.3431 39.3431 42 41 42C42.6569 42 44 43.3431 44 45V101H38V45Z" fill="#7048E8"/>
<path d="M57 53C57 51.3431 58.3431 50 60 50C61.6569 50 63 51.3431 63 53V101H57V53Z" fill="#7048E8"/>
<path d="M76 34C76 32.3431 77.3431 31 79 31C80.6569 31 82 32.3431 82 34V101H76V34Z" fill="#7048E8"/>
<path d="M95 51C95 49.3431 96.3431 48 98 48C99.6569 48 101 49.3431 101 51V101H95V51Z" fill="#7048E8"/>
<path d="M114 45C114 43.3431 115.343 42 117 42C118.657 42 120 43.3431 120 45V101H114V45Z" fill="#7048E8"/>
</svg>
